Patient4_TMGait_0pt7_02_left_07_EMG.mot
version=1
nRows=16
nColumns=33
inDegrees=no
endheader
time	1LAddLong	2LGlutMax	3LGlutMed	4LIliopsoas	5LSemiMemb	6LBicFemLong	7LRecFem	8LVastMed	9LVastLat	10LGasMed	11LTibAnt	12lTibPost	13LPeroneusLong	14LSol	15LExtDigLong	16LFlexDigLong	17RAddLong	18RGlutMax	19RGlutMed	20RIliopsoas	21RSemiMemb	22RBicFemLong	23RRecFem	24RVastMed	25RVastLat	26RGasMed	27RTibAnt	28RTibPost	29RPeroneusLong	30RSol	31RExtDigLong	32RFlexDigLong
7.997	0.014343	0.90012	-0.034637	-0.009003	0.011749	0.008545	-0.42816	-0.004425	-0.22888	0.059357	-0.02533	0.14603	-0.22537	-0.31158	-0.015717	-0.17731	0.13565	-0.82779	0.012207	0.13016	-0.049896	0.13672	0.76721	-0.081329	-0.027313	0.006104	0.24445	-0.014496	0.095062	-0.067444	-0.003357	-0.005798
7.998	0.057526	0.98618	-0.009003	0.001068	0.016937	0.25848	-0.51727	0.009003	-0.27298	0.35828	-0.003662	0.15213	-0.11551	-0.58731	-0.017395	-0.55969	0.096436	-0.77118	0.014801	0.15243	-0.097198	0.00824	0.77499	-0.11185	-0.035248	0.001526	0.18509	-0.014191	0.21133	-0.009613	-0.002747	-0.002289
7.999	0.055695	0.99304	0.095062	-0.006561	-0.04837	0.44769	-0.59448	0.017853	-0.29282	0.36774	0.010834	0.15366	-0.11704	-0.66452	0.029602	0.25833	0.070648	-0.83176	0.10819	0.19211	-0.092163	-0.15915	0.80521	-0.080566	-0.043488	-0.008087	-0.009918	-0.012054	0.24445	-0.004425	-0.006104	-0.007782
8	0.039063	0.97672	-0.15259	-0.005798	-0.032654	0.42694	-0.62683	0.022278	-0.26504	0.42297	0.005951	-0.093384	0.23392	-0.76157	0.050354	0.07309	0.057678	-0.83527	0.055695	0.29694	-0.062103	-0.23086	0.77591	-0.057678	-0.037079	0.003204	-0.25818	-0.01297	0.17059	0.026703	-0.004883	-0.003815
8.001	0.036469	1.0719	-0.15411	0.015411	-0.01358	0.38986	-0.62561	0.016022	-0.24323	0.47485	0.010681	0.058899	0.26794	-0.3746	0.12711	0.013123	0.055847	-0.85342	0.086975	0.36774	-0.054016	-0.22751	0.84335	-0.11581	-0.067749	-0.007019	0.14587	-0.013733	0.083923	0.0354	-0.004883	-0.005035
8.002	0.02533	1.1162	-0.00473	-0.010223	-0.025024	0.40482	-0.54672	0.022583	-0.27359	-0.21912	-0.000458	0.39764	0.087433	0.25482	0.080261	0.027008	-0.001373	-0.79193	0.15579	0.35599	-0.083466	-0.2298	0.84763	-0.10086	-0.057983	0.002136	0.18341	-0.01236	0.086212	0.0383	-0.00412	-0.005951
8.003	0.019836	1.0524	0.16892	-0.013733	-0.041199	0.32028	-0.51407	0.023193	-0.24231	-0.32913	-0.008392	0.3569	0.13458	0.38147	-0.014648	0.002441	-0.11322	-0.73486	0.41946	0.15305	-0.1059	-0.1944	0.85297	-0.12924	-0.083923	0.001221	0.18021	-0.015869	-0.001373	0.014496	-0.005798	-0.006561
8.004	0.014496	0.93597	-0.004272	-0.007324	-0.07309	0.38605	-0.6282	0.02243	-0.16724	-0.34042	-0.011444	0.02121	0.061951	0.10666	-0.059357	-0.05661	-0.17349	-0.72464	0.45624	0.056763	-0.13977	-0.17609	0.83954	-0.17105	-0.065155	-0.004425	0.3981	-0.014191	-0.074158	0.063782	-0.001068	-0.003357
8.005	0.011902	0.94132	-0.0914	0.010529	-0.03067	0.44342	-0.62302	0.028687	-0.13611	-0.31006	-0.001678	0.16617	-0.23666	-0.4776	-0.13199	-0.050354	-0.19104	-0.66223	-0.26398	-0.064087	-0.10986	-0.11795	0.79971	-0.089264	-0.053406	-0.004578	0.38437	-0.013275	-0.091553	0.055084	-0.00061	-0.018768
8.006	0.009766	1.0344	-0.087433	-0.00061	-0.020599	0.26276	-0.65475	0.042572	-0.02655	-0.16525	0.004272	0.19684	-0.25848	-0.95505	-0.074005	-0.042419	-0.16739	-0.56778	-0.383	-0.1648	-0.073242	-0.024261	0.80933	-0.071106	-0.063171	-0.006714	0.32013	-0.012817	-0.042267	0.023651	-0.003815	-0.007172
8.007	0.008087	1.0774	-0.11902	-0.001221	-0.023651	0.31021	-0.65475	0.04364	0.092621	-0.13519	0.000305	0.26306	0.11169	-0.62118	-0.033417	-0.054626	-0.13504	-0.36926	-0.18372	-0.17944	-0.050507	-0.001068	0.91339	-0.13168	-0.076599	-0.006256	0.62408	-0.01358	-0.048065	-0.00885	0.000763	-0.003357
8.008	0.015869	1.1777	-0.24475	-0.015259	-0.039825	0.25818	-0.73532	0.046844	0.15808	-0.014496	0.000458	0.26337	0.49072	-0.066376	-0.085297	-0.066833	-0.11032	-0.23499	-0.036316	-0.045776	-0.035858	-0.031891	0.92987	-0.15533	-0.072021	-0.002899	0.18158	-0.010986	-0.004578	-0.039063	-0.00473	-0.007019
8.009	0.010529	1.2564	-0.19455	-0.005951	-0.063324	0.26657	-0.72891	0.01709	0.14847	0.061798	0.013428	0.28153	0.61203	0.30945	-0.077667	-0.046539	-0.094147	-0.10178	-0.050507	0.054932	-0.043488	-0.11505	0.92773	-0.17563	-0.091553	0.004272	-0.70419	-0.014954	0.12756	-0.085907	-0.002441	-0.001831
8.01	0.004578	1.2564	-0.24612	-0.007935	-0.11688	0.41046	-0.61462	-0.010376	0.10559	0.079346	0.006104	0.36026	0.25467	0.38483	-0.086823	-0.047455	-0.054321	0.00946	-0.27969	0.1532	-0.06012	-0.14771	0.96558	-0.16129	-0.085297	0.001526	-0.84274	-0.017548	0.053253	-0.095215	-0.003204	-0.006256
8.011	-0.001984	1.031	-0.1889	-0.005798	-0.121	0.44571	-0.52048	-0.024109	0.023499	0.028992	-0.011139	0.053253	-0.05127	0.3479	-0.023193	-0.04715	0.00885	0.14404	-0.25116	0.19043	-0.081177	-0.15808	0.97702	-0.17441	-0.085144	0.004272	-0.61706	-0.011597	0.009613	-0.10193	-0.001831	0.000305
8.012	-0.015411	0.78995	-0.15442	-0.017242	-0.12634	0.19943	-0.44174	-0.025024	0.011902	-0.032959	-0.023804	0.032501	-0.20096	0.41809	0.096588	-0.002899	0.050354	0.1384	-0.10178	0.13626	-0.062103	-0.089111	0.93124	-0.25192	-0.086212	0.006866	-0.16953	-0.01236	0.016022	-0.11368	-0.003662	-0.009766
